HIERARCHY
ROOT Hips
{
  OFFSET -245.348 73.1358 1691.41
  CHANNELS 6 Xposition Yposition Zposition Zrotation Xrotation Yrotation
  JOINT Spine
  {
    OFFSET -3.79245e-05 8 7.61501e-05
    CHANNELS 6 Xposition Yposition Zposition Zrotation Xrotation Yrotation
    JOINT Spine1
    {
      OFFSET -0.000713421 8 0.000617685
      CHANNELS 6 Xposition Yposition Zposition Zrotation Xrotation Yrotation
      JOINT Spine2
      {
        OFFSET -0.00189197 8 0.00140016
        CHANNELS 6 Xposition Yposition Zposition Zrotation Xrotation Yrotation
        JOINT Spine3
        {
          OFFSET 0 8 0
          CHANNELS 6 Xposition Yposition Zposition Zrotation Xrotation Yrotation
          JOINT Neck
          {
            OFFSET 0.000105419 17.0001 -0.000258884
            CHANNELS 6 Xposition Yposition Zposition Zrotation Xrotation Yrotation
            JOINT Head
            {
              OFFSET 0.000192165 10.8 -0.00012085
              CHANNELS 6 Xposition Yposition Zposition Zrotation Xrotation Yrotation
              End Site
              {
                OFFSET 0 20.25 0
              }
            }
          }
          JOINT LeftShoulder
          {
            OFFSET 5.0001 17 -0.000190635
            CHANNELS 6 Xposition Yposition Zposition Zrotation Xrotation Yrotation
            JOINT LeftShoulder2
            {
              OFFSET 6.45 0 0
              CHANNELS 6 Xposition Yposition Zposition Zrotation Xrotation Yrotation
              JOINT LeftArm
              {
                OFFSET 6.44999 0 -3.10148e-05
                CHANNELS 6 Xposition Yposition Zposition Zrotation Xrotation Yrotation
                JOINT LeftForeArm
                {
                  OFFSET 0.00339054 -32.3999 -1.99776
                  CHANNELS 6 Xposition Yposition Zposition Zrotation Xrotation Yrotation
                  JOINT LeftHand
                  {
                    OFFSET -0.00206409 -25.652 1.99709
                    CHANNELS 6 Xposition Yposition Zposition Zrotation Xrotation Yrotation
                    JOINT LeftHandThumb1
                    {
                      OFFSET -0.50106 -1.49974 2.64909
                      CHANNELS 6 Xposition Yposition Zposition Zrotation Xrotation Yrotation
                      JOINT LeftHandThumb2
                      {
                        OFFSET 0.000933746 -3.79686 3.69264
                        CHANNELS 6 Xposition Yposition Zposition Zrotation Xrotation Yrotation
                        JOINT LeftHandThumb3
                        {
                          OFFSET -0.000956376 -2.99924 2.69734
                          CHANNELS 6 Xposition Yposition Zposition Zrotation Xrotation Yrotation
                          End Site
                          {
                            OFFSET -0.00128161 -2.30071 1.79961
                          }
                        }
                      }
                    }
                    JOINT LeftHandIndex
                    {
                      OFFSET -0.000305894 -1.89988 1.59975
                      CHANNELS 6 Xposition Yposition Zposition Zrotation Xrotation Yrotation
                      JOINT LeftHandIndex1
                      {
                        OFFSET 0.00308512 -8.29655 1.89446
                        CHANNELS 6 Xposition Yposition Zposition Zrotation Xrotation Yrotation
                        JOINT LeftHandIndex2
                        {
                          OFFSET 0.00020825 -4.50003 -1.57734e-05
                          CHANNELS 6 Xposition Yposition Zposition Zrotation Xrotation Yrotation
                          JOINT LeftHandIndex3
                          {
                            OFFSET 0.000292681 -3.39748 -0.0023858
                            CHANNELS 6 Xposition Yposition Zposition Zrotation Xrotation Yrotation
                            End Site
                            {
                              OFFSET -0.000998331 -2.60016 -0.00197602
                            }
                          }
                        }
                      }
                    }
                    JOINT LeftHandMiddle
                    {
                      OFFSET -0.250602 -2.20011 0.400246
                      CHANNELS 6 Xposition Yposition Zposition Zrotation Xrotation Yrotation
                      JOINT LeftHandMiddle1
                      {
                        OFFSET -0.00413695 -8.30031 0.99851
                        CHANNELS 6 Xposition Yposition Zposition Zrotation Xrotation Yrotation
                        JOINT LeftHandMiddle2
                        {
                          OFFSET 0.000995701 -4.64885 -0.00400114
                          CHANNELS 6 Xposition Yposition Zposition Zrotation Xrotation Yrotation
                          JOINT LeftHandMiddle3
                          {
                            OFFSET 0.000300871 -3.29947 0
                            CHANNELS 6 Xposition Yposition Zposition Zrotation Xrotation Yrotation
                            End Site
                            {
                              OFFSET 0.0047134 -2.69746 0.0133012
                            }
                          }
                        }
                      }
                    }
                    JOINT LeftHandRing
                    {
                      OFFSET -0.50283 -2.15001 -0.801174
                      CHANNELS 6 Xposition Yposition Zposition Zrotation Xrotation Yrotation
                      JOINT LeftHandRing1
                      {
                        OFFSET -0.000792674 -7.75096 -0.198528
                        CHANNELS 6 Xposition Yposition Zposition Zrotation Xrotation Yrotation
                        JOINT LeftHandRing2
                        {
                          OFFSET 0.00422917 -3.79936 0.00118618
                          CHANNELS 6 Xposition Yposition Zposition Zrotation Xrotation Yrotation
                          JOINT LeftHandRing3
                          {
                            OFFSET 0.00070361 -3.40001 -0.000802276
                            CHANNELS 6 Xposition Yposition Zposition Zrotation Xrotation Yrotation
                            End Site
                            {
                              OFFSET 5.30114e-05 -2.60003 -8.44047e-05
                            }
                          }
                        }
                      }
                    }
                    JOINT LeftHandPinky
                    {
                      OFFSET -0.751655 -1.75063 -1.84944
                      CHANNELS 6 Xposition Yposition Zposition Zrotation Xrotation Yrotation
                      JOINT LeftHandPinky1
                      {
                        OFFSET 6.58348e-05 -7.1493 -1.00189
                        CHANNELS 6 Xposition Yposition Zposition Zrotation Xrotation Yrotation
                        JOINT LeftHandPinky2
                        {
                          OFFSET 0.000153863 -3.00014 1.73988e-05
                          CHANNELS 6 Xposition Yposition Zposition Zrotation Xrotation Yrotation
                          JOINT LeftHandPinky3
                          {
                            OFFSET -0.000727592 -2.34874 -0.00279127
                            CHANNELS 6 Xposition Yposition Zposition Zrotation Xrotation Yrotation
                            End Site
                            {
                              OFFSET 0.00136816 -2.09571 0.000188722
                            }
                          }
                        }
                      }
                    }
                  }
                }
              }
            }
          }
          JOINT RightShoulder
          {
            OFFSET -4.9999 17 -0.000302767
            CHANNELS 6 Xposition Yposition Zposition Zrotation Xrotation Yrotation
            JOINT RightShoulder2
            {
              OFFSET -6.45 0 0
              CHANNELS 6 Xposition Yposition Zposition Zrotation Xrotation Yrotation
              JOINT RightArm
              {
                OFFSET -6.45002 -6.38431e-05 -0.000170111
                CHANNELS 6 Xposition Yposition Zposition Zrotation Xrotation Yrotation
                JOINT RightForeArm
                {
                  OFFSET -0.0059747 -32.3982 -2.00247
                  CHANNELS 6 Xposition Yposition Zposition Zrotation Xrotation Yrotation
                  JOINT RightHand
                  {
                    OFFSET 0.000176636 -25.6494 2.00023
                    CHANNELS 6 Xposition Yposition Zposition Zrotation Xrotation Yrotation
                    JOINT RightHandThumb1
                    {
                      OFFSET 0.497368 -1.49971 2.64835
                      CHANNELS 6 Xposition Yposition Zposition Zrotation Xrotation Yrotation
                      JOINT RightHandThumb2
                      {
                        OFFSET -0.00148672 -3.80214 3.69602
                        CHANNELS 6 Xposition Yposition Zposition Zrotation Xrotation Yrotation
                        JOINT RightHandThumb3
                        {
                          OFFSET 0.00552339 -2.99586 2.69398
                          CHANNELS 6 Xposition Yposition Zposition Zrotation Xrotation Yrotation
                          End Site
                          {
                            OFFSET -0.00270753 -2.29643 1.80181
                          }
                        }
                      }
                    }
                    JOINT RightHandIndex
                    {
                      OFFSET 0.000541062 -1.89913 1.59981
                      CHANNELS 6 Xposition Yposition Zposition Zrotation Xrotation Yrotation
                      JOINT RightHandIndex1
                      {
                        OFFSET 0.00498804 -8.30113 1.90426
                        CHANNELS 6 Xposition Yposition Zposition Zrotation Xrotation Yrotation
                        JOINT RightHandIndex2
                        {
                          OFFSET -0.00506552 -4.49909 -0.000515123
                          CHANNELS 6 Xposition Yposition Zposition Zrotation Xrotation Yrotation
                          JOINT RightHandIndex3
                          {
                            OFFSET -0.00316225 -3.40072 0.000822771
                            CHANNELS 6 Xposition Yposition Zposition Zrotation Xrotation Yrotation
                            End Site
                            {
                              OFFSET -0.000428671 -2.59939 -0.00127643
                            }
                          }
                        }
                      }
                    }
                    JOINT RightHandMiddle
                    {
                      OFFSET 0.248758 -2.19807 0.399107
                      CHANNELS 6 Xposition Yposition Zposition Zrotation Xrotation Yrotation
                      JOINT RightHandMiddle1
                      {
                        OFFSET 0.00228296 -8.30034 1.00206
                        CHANNELS 6 Xposition Yposition Zposition Zrotation Xrotation Yrotation
                        JOINT RightHandMiddle2
                        {
                          OFFSET -0.000171525 -4.65013 -8.74642e-05
                          CHANNELS 6 Xposition Yposition Zposition Zrotation Xrotation Yrotation
                          JOINT RightHandMiddle3
                          {
                            OFFSET -0.00017617 -3.30163 0.0021294
                            CHANNELS 6 Xposition Yposition Zposition Zrotation Xrotation Yrotation
                            End Site
                            {
                              OFFSET 0.000295246 -2.70271 0.00129111
                            }
                          }
                        }
                      }
                    }
                    JOINT RightHandRing
                    {
                      OFFSET 0.494969 -2.14563 -0.806273
                      CHANNELS 6 Xposition Yposition Zposition Zrotation Xrotation Yrotation
                      JOINT RightHandRing1
                      {
                        OFFSET -0.00146499 -7.75619 -0.200064
                        CHANNELS 6 Xposition Yposition Zposition Zrotation Xrotation Yrotation
                        JOINT RightHandRing2
                        {
                          OFFSET -0.000345154 -3.80096 -0.000588942
                          CHANNELS 6 Xposition Yposition Zposition Zrotation Xrotation Yrotation
                          JOINT RightHandRing3
                          {
                            OFFSET 6.71932e-05 -3.40001 5.12238e-05
                            CHANNELS 6 Xposition Yposition Zposition Zrotation Xrotation Yrotation
                            End Site
                            {
                              OFFSET 0.00380075 -2.601 -0.00335925
                            }
                          }
                        }
                      }
                    }
                    JOINT RightHandPinky
                    {
                      OFFSET 0.744755 -1.74958 -1.85384
                      CHANNELS 6 Xposition Yposition Zposition Zrotation Xrotation Yrotation
                      JOINT RightHandPinky1
                      {
                        OFFSET 0.000721856 -7.14965 -1.00081
                        CHANNELS 6 Xposition Yposition Zposition Zrotation Xrotation Yrotation
                        JOINT RightHandPinky2
                        {
                          OFFSET -0.00168823 -2.99999 0.000274659
                          CHANNELS 6 Xposition Yposition Zposition Zrotation Xrotation Yrotation
                          JOINT RightHandPinky3
                          {
                            OFFSET 0.000400755 -2.35106 -0.000282697
                            CHANNELS 6 Xposition Yposition Zposition Zrotation Xrotation Yrotation
                            End Site
                            {
                              OFFSET 0.000873034 -2.10003 0.000396861
                            }
                          }
                        }
                      }
                    }
                  }
                }
              }
            }
          }
        }
      }
    }
  }
  JOINT LeftUpLeg
  {
    OFFSET 7.99999 0 0
    CHANNELS 6 Xposition Yposition Zposition Zrotation Xrotation Yrotation
    JOINT LeftLeg
    {
      OFFSET -2.2659e-05 -45 -0.999959
      CHANNELS 6 Xposition Yposition Zposition Zrotation Xrotation Yrotation
      JOINT LeftFoot
      {
        OFFSET -0.00182747 -40.9996 -2.001
        CHANNELS 6 Xposition Yposition Zposition Zrotation Xrotation Yrotation
        JOINT LeftToeBase
        {
          OFFSET 0.000895449 -7.49992 12.5008
          CHANNELS 6 Xposition Yposition Zposition Zrotation Xrotation Yrotation
          JOINT LeftFootToe
          {
            OFFSET 0 0 4
            CHANNELS 6 Xposition Yposition Zposition Zrotation Xrotation Yrotation
            End Site
            {
              OFFSET 0 0 0
            }
          }
        }
      }
    }
  }
  JOINT RightUpLeg
  {
    OFFSET -7.99999 0 0
    CHANNELS 6 Xposition Yposition Zposition Zrotation Xrotation Yrotation
    JOINT RightLeg
    {
      OFFSET -0.00175526 -45.0005 -1.00095
      CHANNELS 6 Xposition Yposition Zposition Zrotation Xrotation Yrotation
      JOINT RightFoot
      {
        OFFSET 0.00128545 -41.0044 -1.99898
        CHANNELS 6 Xposition Yposition Zposition Zrotation Xrotation Yrotation
        JOINT RightToeBase
        {
          OFFSET 0.0010552 -7.49997 12.5005
          CHANNELS 6 Xposition Yposition Zposition Zrotation Xrotation Yrotation
          JOINT RightFootToe
          {
            OFFSET 0 0 4
            CHANNELS 6 Xposition Yposition Zposition Zrotation Xrotation Yrotation
            End Site
            {
              OFFSET 0 0 0
            }
          }
        }
      }
    }
  }
}
MOTION
Frames:	3
Frame Time:	0.0111111
-242.807 70.6113 1696.35 -6.24711 6.97462 168.582 5.68434e-14 8 0 10.1014 13.0123 -10.1711 0 8 0 -1.53359 7.88566 5.05215 -8.52651e-14 8 0 -0.679183 3.96537 2.49789 2.84217e-14 8 0 -0.676372 3.95161 2.49001 0 17 0 6.65892 -1.97246 -3.22994 2.27374e-13 10.8 0 15.388 -5.20952 -7.17177 5 17 2.27374e-13 -0.279264 -10.4621 7.29453 6.45 2.84217e-14 2.27374e-13 -1.27705 -0.199046 4.19394 6.45 -5.68434e-14 0 32.8489 -36.117 2.23493 -2.84217e-14 -32.4 -2 -32.7626 -46.9444 -36.8538 -5.68434e-14 -25.65 2 14.7523 0.366698 -1.29323 -0.5 -1.5 2.65 -12.2577 -19.6741 31.7418 -1.13687e-13 -3.8 3.7 0.672025 -0.309403 0.75243 5.68434e-14 -3 2.7 -0.00273501 8.23732 -0.00556305 1.7053e-13 -1.9 1.6 1.68784e-06 4.42301e-06 -4.58911e-06 0 -8.3 1.9 -10.5462 -23.3924 -2.03243 2.27374e-13 -4.5 0 -0.0843729 -0.365592 -0.301111 -5.68434e-14 -3.4 0 0.155753 -0.22703 -0.293978 -0.25 -2.2 0.4 1.68784e-06 4.42301e-06 -4.58911e-06 2.27374e-13 -8.3 1 -56.7712 -10.2896 -0.90162 0 -4.65 1.13687e-13 -37.3902 0.0645176 -0.112758 0 -3.3 2.55795e-13 13.2231 0.00390154 0.127203 -0.5 -2.15 -0.8 1.68784e-06 4.42301e-06 -4.58911e-06 -8.52651e-14 -7.75 -0.2 -17.5214 -25.0067 -1.91674 0 -3.8 -5.68434e-14 -0.288517 0.080991 0.0399881 0 -3.4 -2.84217e-13 -26.0047 -0.240961 -0.311986 -0.75 -1.75 -1.85 1.68784e-06 4.42301e-06 -4.58911e-06 -2.55795e-13 -7.15 -1 -24.5426 -29.2936 -2.85884 -1.13687e-13 -3 0 -0.13238 -0.249677 0.0992573 0 -2.35 5.68434e-14 0.000364472 -0.241281 0.105269 -5 17 -2.27374e-13 5.59876 -5.85511 -4.01109 -6.45 -5.68434e-14 -2.27374e-13 -1.9976 -0.925546 -1.61008 -6.45 5.68434e-14 2.27374e-13 -25.9384 -60.3093 13.8765 -5.68434e-14 -32.4 -2 -30.9201 -25.774 -66.5325 -1.13687e-13 -25.65 2 -38.5208 -5.85665 -7.60157 0.5 -1.5 2.65 -29.4145 -4.43942 24.0769 0 -3.8 3.7 -7.12476 21.9102 -3.06028 2.27374e-13 -3 2.7 -0.990945 68.6591 1.14899 2.27374e-13 -1.9 1.6 -5.27495e-06 1.81908e-05 -3.9998e-06 0 -8.3 1.9 24.0003 20.0758 -4.6735 1.13687e-13 -4.5 0 25.9636 5.94088 -0.0125992 4.54747e-13 -3.4 -5.68434e-14 20.4199 -0.0860118 -0.0557032 0.25 -2.2 0.4 -5.27495e-06 1.81908e-05 -3.9998e-06 -2.27374e-13 -8.3 1 38.5628 15.7489 -6.81552 2.27374e-13 -4.65 2.84217e-14 0.888059 0.426357 -0.0601987 0 -3.3 -2.84217e-14 0.798849 0.126902 -0.0136671 0.5 -2.15 -0.8 -5.27495e-06 1.81908e-05 -3.9998e-06 0 -7.75 -0.2 43.6507 16.6639 -9.14503 1.13687e-13 -3.8 -1.42109e-14 22.1806 24.9437 5.21278 1.42109e-13 -3.4 0 31.6037 0.0133015 -0.297351 0.75 -1.75 -1.85 -5.27495e-06 1.81908e-05 -3.9998e-06 0 -7.15 -1 56.1907 1.71266 -4.78635 2.84217e-14 -3 0 34.9415 35.8475 8.62529 -1.13687e-13 -2.35 5.68434e-14 42.9125 -0.125388 0.0303023 8 0 0 59.5575 -24.7242 16.3136 -1.13687e-13 -45 -1 -84.3431 38.0612 53.301 0 -41 -2 5.14679 2.27888 24.4254 -2.27374e-13 -7.5 12.5 -6.56441e-07 -16.0258 -1.03682e-05 -2.27374e-13 0 4 16.0331 20.444 27.5843 -8 0 0 19.4499 -43.2996 0.430576 -2.84217e-14 -45 -1 -83.8095 23.1584 69.9223 0 -41 -2 43.4457 -15.1096 18.2835 0 -7.5 12.5 -0.00856635 0.0699022 -0.00898313 0 0 4 -9.76741 14.7492 56.4719 
-242.807 70.6062 1696.35 -6.24706 6.91214 168.611 5.68434e-14 8 2.27374e-13 10.1166 13.0443 -10.1414 -5.68434e-14 8 0 -1.56039 7.88554 5.0513 -2.84217e-14 8 2.27374e-13 -0.692705 3.96566 2.49786 -2.84217e-14 8 2.27374e-13 -0.689799 3.95214 2.48989 5.68434e-14 17 0 6.65961 -1.94219 -3.21991 2.84217e-13 10.8 0 15.3935 -5.1371 -7.15339 5 17 0 -0.294115 -10.4629 7.29725 6.45 0 0 -1.28437 -0.20799 4.1905 6.45 -5.68434e-14 0 32.9872 -36.3126 2.39013 -2.84217e-14 -32.4 -2 -32.8497 -47.0118 -36.8772 -5.68434e-14 -25.65 2 14.7801 0.401194 -1.52277 -0.5 -1.5 2.65 -12.1668 -19.6393 31.8456 -2.27374e-13 -3.8 3.7 0.672808 -0.309016 0.751902 0 -3 2.7 -0.002862 8.39921 -0.00571476 2.27374e-13 -1.9 1.6 1.68784e-06 4.42301e-06 -4.58911e-06 -5.68434e-14 -8.3 1.9 -10.5052 -23.3546 -2.02182 5.68434e-14 -4.5 0 -0.0836979 -0.364459 -0.301057 5.68434e-14 -3.4 0 0.15572 -0.22698 -0.293947 -0.25 -2.2 0.4 1.68784e-06 4.42301e-06 -4.58911e-06 1.98952e-13 -8.3 1 -56.7276 -10.256 -0.881365 0 -4.65 8.52651e-14 -37.3902 0.0634542 -0.111387 0 -3.3 2.55795e-13 13.2065 0.0037859 0.127114 -0.5 -2.15 -0.8 1.68784e-06 4.42301e-06 -4.58911e-06 -5.68434e-14 -7.75 -0.2 -17.47 -24.9715 -1.90587 0 -3.8 0 -0.288516 0.0802893 0.0399909 1.13687e-13 -3.4 -2.27374e-13 -26.0047 -0.240884 -0.311889 -0.75 -1.75 -1.85 1.68784e-06 4.42301e-06 -4.58911e-06 -2.27374e-13 -7.15 -1 -24.4835 -29.283 -2.8496 -1.13687e-13 -3 5.68434e-14 -0.132036 -0.249643 0.0985233 1.13687e-13 -2.35 5.68434e-14 0.000361027 -0.241273 0.104455 -5 17 -2.27374e-13 5.61682 -5.83894 -3.97022 -6.45 -5.68434e-14 0 -2.00444 -0.924292 -1.62681 -6.45 0 0 -26.1263 -60.3606 13.7533 -8.52651e-14 -32.4 -2 -30.9377 -25.7846 -66.6204 -1.13687e-13 -25.65 2 -38.518 -5.81603 -7.61995 0.5 -1.5 2.65 -29.4047 -4.43025 24.0102 0 -3.8 3.7 -7.11594 21.8882 -3.05951 0 -3 2.7 -0.98863 68.6591 1.14668 2.27374e-13 -1.9 1.6 -5.27495e-06 1.81908e-05 -3.9998e-06 0 -8.3 1.9 23.9854 20.0818 -4.67389 -2.27374e-13 -4.5 1.42109e-14 25.9354 5.93396 -0.0115237 4.54747e-13 -3.4 -5.68434e-14 20.4018 -0.0855411 -0.055119 0.25 -2.2 0.4 -5.27495e-06 1.81908e-05 -3.9998e-06 0 -8.3 1 38.5647 15.7531 -6.81588 0 -4.65 1.42109e-14 0.856824 0.41365 -0.0601169 0 -3.3 0 0.763033 0.127415 -0.0141576 0.5 -2.15 -0.8 -5.27495e-06 1.81908e-05 -3.9998e-06 0 -7.75 -0.2 43.6588 16.6529 -9.14295 1.13687e-13 -3.8 0 22.1655 24.9057 5.19333 8.52651e-14 -3.4 -1.13687e-13 31.565 0.0134882 -0.298216 0.75 -1.75 -1.85 -5.27495e-06 1.81908e-05 -3.9998e-06 0 -7.15 -1 56.1692 1.70679 -4.78029 0 -3 -5.68434e-14 34.94 35.8476 8.6266 1.13687e-13 -2.35 5.68434e-14 42.9122 -0.12496 0.03095 8 0 0 59.5925 -24.8657 16.265 0 -45 -1 -84.4078 38.062 53.4154 0 -41 -2 5.11491 2.36226 24.3619 0 -7.5 12.5 -6.83563e-07 -16.1697 -1.03757e-05 0 0 4 16.0467 20.4434 27.6702 -8 0 0 19.471 -43.3507 0.456026 2.84217e-14 -45 -1 -83.8151 23.1614 69.9582 -1.13687e-13 -41 -2 43.4538 -15.145 18.2298 1.13687e-13 -7.5 12.5 -0.00856634 0.0696227 -0.0090305 0 0 4 -9.77359 14.7385 56.4695 
-242.798 70.5965 1696.35 -6.24238 6.85031 168.648 0 8 0 10.1322 13.0772 -10.1144 0 8 -2.27374e-13 -1.58583 7.88597 5.05115 5.68434e-14 8 2.27374e-13 -0.705408 3.96627 2.49784 2.84217e-14 8 4.54747e-13 -0.703154 3.95266 2.48978 -2.84217e-14 17 -2.27374e-13 6.65287 -1.90497 -3.20312 1.98952e-13 10.8 0 15.3815 -5.04676 -7.12083 5 17 0 -0.305794 -10.4628 7.28935 6.45 0 -2.27374e-13 -1.29224 -0.220865 4.18477 6.45 2.84217e-14 0 33.1169 -36.518 2.5881 0 -32.4 -2 -32.9095 -47.0542 -36.8619 -1.13687e-13 -25.65 2 14.8073 0.449677 -1.78379 -0.5 -1.5 2.65 -12.0607 -19.6204 31.9583 -2.27374e-13 -3.8 3.7 0.673585 -0.30863 0.75136 1.13687e-13 -3 2.7 -0.002986 8.54516 -0.0058661 1.98952e-13 -1.9 1.6 1.68784e-06 4.42301e-06 -4.58911e-06 -2.84217e-14 -8.3 1.9 -10.4661 -23.3188 -2.01148 2.84217e-13 -4.5 0 -0.0831991 -0.363301 -0.300999 -1.13687e-13 -3.4 0 0.155684 -0.226924 -0.293909 -0.25 -2.2 0.4 1.68784e-06 4.42301e-06 -4.58911e-06 2.84217e-13 -8.3 1 -56.7393 -10.2026 -0.850039 0 -4.65 1.42109e-13 -37.3902 0.0623926 -0.110015 0 -3.3 2.27374e-13 13.1814 0.00366969 0.127007 -0.5 -2.15 -0.8 1.68784e-06 4.42301e-06 -4.58911e-06 -1.13687e-13 -7.75 -0.2 -17.4531 -24.9509 -1.89958 1.13687e-13 -3.8 0 -0.288516 0.0795894 0.0399927 -1.13687e-13 -3.4 -2.27374e-13 -26.0047 -0.240801 -0.311782 -0.75 -1.75 -1.85 1.68784e-06 4.42301e-06 -4.58911e-06 -2.84217e-13 -7.15 -1 -24.5059 -29.2861 -2.85326 -1.13687e-13 -3 0 -0.131693 -0.249605 0.09779 0 -2.35 0 0.00035757 -0.241262 0.103639 -5 17 0 5.62288 -5.82619 -3.9547 -6.45 -1.13687e-13 -2.27374e-13 -2.00697 -0.923064 -1.64078 -6.45 0 0 -26.2632 -60.4144 13.6541 -2.84217e-14 -32.4 -2 -30.9465 -25.7983 -66.6979 1.13687e-13 -25.65 2 -38.4952 -5.80168 -7.63699 0.5 -1.5 2.65 -29.4151 -4.41629 23.9659 0 -3.8 3.7 -7.11046 21.8747 -3.05893 0 -3 2.7 -0.98629 68.6591 1.14434 0 -1.9 1.6 -5.27495e-06 1.81908e-05 -3.9998e-06 0 -8.3 1.9 23.9678 20.0818 -4.67117 -2.27374e-13 -4.5 0 25.9062 5.92678 -0.0104619 3.97904e-13 -3.4 -5.68434e-14 20.3831 -0.0851099 -0.0545258 0.25 -2.2 0.4 -5.27495e-06 1.81908e-05 -3.9998e-06 0 -8.3 1 38.5632 15.7529 -6.81622 0 -4.65 2.84217e-14 0.815155 0.396752 -0.0600326 -1.13687e-13 -3.3 -4.26326e-14 0.715095 0.127927 -0.014673 0.5 -2.15 -0.8 -5.27495e-06 1.81908e-05 -3.9998e-06 2.27374e-13 -7.75 -0.2 43.6576 16.641 -9.13741 1.13687e-13 -3.8 0 22.1481 24.8626 5.17148 8.52651e-14 -3.4 1.13687e-13 31.5212 0.0136894 -0.299009 0.75 -1.75 -1.85 -5.27495e-06 1.81908e-05 -3.9998e-06 2.27374e-13 -7.15 -1 56.1532 1.6979 -4.77324 -5.68434e-14 -3 0 34.9355 35.8038 8.60145 1.13687e-13 -2.35 5.68434e-14 42.8704 -0.124517 0.0316011 8 -5.68434e-14 0 59.6367 -24.9811 16.2508 -1.13687e-13 -45 -1 -84.444 38.0641 53.4826 0 -41 -2 5.08901 2.39821 24.3184 -2.27374e-13 -7.5 12.5 -6.95771e-07 -16.2345 -1.03791e-05 -2.27374e-13 0 4 16.058 20.428 27.7388 -8 -2.84217e-14 -2.27374e-13 19.5098 -43.4034 0.47633 0 -45 -1 -83.8374 23.163 70.0015 0 -41 -2 43.4549 -15.1859 18.1819 0 -7.5 12.5 -0.00856632 0.0693373 -0.00907847 0 0 4 -9.77875 14.7278 56.4669 
